# xmcd
#
# Track frame offsets:
#	182
#	71887
#	94257
#	116922
#	136347
#	154755
#	175420
#	197335
#	219495
#	245360
#	266500
#	287995
#
# Disc length: 4107 seconds
#
# Revision: 2
# Processed by: cddbd v1.5.2PL0 Copyright (c) Steve Scherf et al.
# Submitted via: EasyCDDAExtractor 15.3.0.1
#
DISCID=b810090c
DTITLE=Varios Artistas - MerenMadness
DYEAR=1997
DGENRE=Latin
TTITLE0=MerenMadness - Madmix Extended Version
TTITLE1=Olga Tañon - Entre La Noche Y El Dia
TTITLE2=Milly Quezada - Entre Tu Cuerpo Y El Mio
TTITLE3=Grupo Mania - Como Me Haces Falta
TTITLE4=Kaos - La Nena Sexy
TTITLE5=Celines Y Manny Manuel - Amigos
TTITLE6=Toño Rosario - Quiero Volver A Empezar
TTITLE7=Los Sabrosos Del Merengue - Quiereme
TTITLE8=Limite 21 - Que Te Pasa (Remix)
TTITLE9=La Banda Gorda - El Hombre Cariñoso
TTITLE10=Los Toros Band - El Mujeron
TTITLE11=MerenMadness - Madmix Radio Edit
EXTD=
EXTT0=
EXTT1=
EXTT2=
EXTT3=
EXTT4=
EXTT5=
EXTT6=
EXTT7=
EXTT8=
EXTT9=
EXTT10=
EXTT11=
PLAYORDER=
